<svg width="32" height="36" viewBox="0 0 32 36" fill="none" xmlns="http://www.w3.org/2000/svg">
<g filter="url(#filter0_dd_2118_5240)">
<path d="M12.333 12.1663C12.333 14.1914 13.9746 15.833 15.9997 15.833C18.0247 15.833 19.6663 14.1914 19.6663 12.1663C19.6663 10.1413 18.0247 8.49967 15.9997 8.49967C13.9746 8.49967 12.333 10.1413 12.333 12.1663Z" fill="#34A0FC"/>
<path d="M8.66634 12.1663C8.66634 16.2164 14.1663 23.1663 15.9997 23.1663C17.833 23.1663 23.333 16.2164 23.333 12.1663C23.333 8.11625 20.0498 4.83301 15.9997 4.83301C11.9496 4.83301 8.66634 8.11625 8.66634 12.1663Z" fill="#34A0FC"/>
<path d="M12.333 12.1663C12.333 14.1914 13.9746 15.833 15.9997 15.833C18.0247 15.833 19.6663 14.1914 19.6663 12.1663C19.6663 10.1413 18.0247 8.49967 15.9997 8.49967C13.9746 8.49967 12.333 10.1413 12.333 12.1663Z" stroke="white"/>
<path d="M8.66634 12.1663C8.66634 16.2164 14.1663 23.1663 15.9997 23.1663C17.833 23.1663 23.333 16.2164 23.333 12.1663C23.333 8.11625 20.0498 4.83301 15.9997 4.83301C11.9496 4.83301 8.66634 8.11625 8.66634 12.1663Z" stroke="white"/>
</g>
<defs>
<filter id="filter0_dd_2118_5240" x="0.166016" y="0.333008" width="31.667" height="35.333" filterUnits="userSpaceOnUse" color-interpolation-filters="sRGB">
<feFlood flood-opacity="0" result="BackgroundImageFix"/>
<feColorMatrix in="SourceAlpha" type="matrix" values="0 0 0 0 0 0 0 0 0 0 0 0 0 0 0 0 0 0 127 0" result="hardAlpha"/>
<feOffset dy="4"/>
<feGaussianBlur stdDeviation="4"/>
<feComposite in2="hardAlpha" operator="out"/>
<feColorMatrix type="matrix" values="0 0 0 0 0.443137 0 0 0 0 0.501961 0 0 0 0 0.588235 0 0 0 0.08 0"/>
<feBlend mode="normal" in2="BackgroundImageFix" result="effect1_dropShadow_2118_5240"/>
<feColorMatrix in="SourceAlpha" type="matrix" values="0 0 0 0 0 0 0 0 0 0 0 0 0 0 0 0 0 0 127 0" result="hardAlpha"/>
<feOffset/>
<feGaussianBlur stdDeviation="0.5"/>
<feComposite in2="hardAlpha" operator="out"/>
<feColorMatrix type="matrix" values="0 0 0 0 0.443137 0 0 0 0 0.501961 0 0 0 0 0.588235 0 0 0 0.04 0"/>
<feBlend mode="normal" in2="effect1_dropShadow_2118_5240" result="effect2_dropShadow_2118_5240"/>
<feBlend mode="normal" in="SourceGraphic" in2="effect2_dropShadow_2118_5240" result="shape"/>
</filter>
</defs>
</svg>
