<svg width="32" height="32" viewBox="0 0 32 32" fill="none" xmlns="http://www.w3.org/2000/svg">
<g clip-path="url(#clip0_2113_13399)">
<path d="M0.0126953 32L2.30862 23.4708C0.457015 20.1482 -0.13126 16.2711 0.651749 12.5508C1.43476 8.8305 3.53653 5.51665 6.57138 3.21731C9.60623 0.917974 13.3706 -0.212607 17.1737 0.0330315C20.9768 0.27867 24.5635 1.88405 27.2758 4.55458C29.988 7.22511 31.6437 10.7817 31.9392 14.5716C32.2346 18.3615 31.15 22.1306 28.8842 25.1873C26.6185 28.2439 23.3237 30.383 19.6043 31.2121C15.885 32.0412 11.9907 31.5046 8.63598 29.7009L0.0126953 32ZM9.05178 26.5092L9.58508 26.8248C12.015 28.2614 14.8531 28.8558 17.657 28.5156C20.461 28.1753 23.0734 26.9194 25.0871 24.9436C27.1008 22.9678 28.4026 20.383 28.7898 17.5922C29.177 14.8013 28.6277 11.961 27.2276 9.51404C25.8275 7.06704 23.6552 5.15075 21.0492 4.06379C18.4432 2.97683 15.5499 2.78026 12.8202 3.50471C10.0905 4.22917 7.67776 5.83395 5.95792 8.06898C4.23808 10.304 3.30777 13.0437 3.31196 15.8612C3.30967 18.1973 3.95741 20.4883 5.18305 22.479L5.5175 23.029L4.23395 27.7895L9.05178 26.5092Z" fill="#151B28"/>
<path fill-rule="evenodd" clip-rule="evenodd" d="M21.9953 18.0513C21.6827 17.7998 21.3166 17.6228 20.925 17.5337C20.5334 17.4446 20.1266 17.4459 19.7356 17.5374C19.148 17.7808 18.7684 18.7005 18.3887 19.1603C18.3087 19.2705 18.191 19.3478 18.0579 19.3777C17.9248 19.4076 17.7853 19.388 17.6656 19.3226C15.5146 18.4822 13.7116 16.9412 12.5495 14.9498C12.4504 14.8255 12.4035 14.6677 12.4186 14.5096C12.4338 14.3516 12.5099 14.2055 12.6308 14.1023C13.0543 13.6842 13.3652 13.1663 13.5347 12.5966C13.5724 11.9682 13.4281 11.3422 13.1189 10.7934C12.88 10.0239 12.4252 9.33872 11.8083 8.81883C11.4901 8.6761 11.1373 8.62824 10.7925 8.68103C10.4476 8.73382 10.1255 8.88502 9.86488 9.11636C9.41244 9.50572 9.05333 9.99134 8.81399 10.5375C8.57464 11.0836 8.46116 11.6763 8.4819 12.272C8.4833 12.6065 8.5258 12.9396 8.60845 13.2638C8.81834 14.0427 9.14113 14.7868 9.56659 15.4727C9.87355 15.9981 10.2085 16.5067 10.5699 16.9964C11.7446 18.6049 13.2212 19.9705 14.9177 21.0176C15.7691 21.5497 16.679 21.9823 17.6295 22.3069C18.6168 22.7533 19.7069 22.9247 20.7841 22.8028C21.3978 22.7101 21.9793 22.4684 22.4774 22.099C22.9754 21.7295 23.3749 21.2436 23.6404 20.684C23.7965 20.346 23.8438 19.968 23.776 19.6021C23.6133 18.8537 22.61 18.412 21.9953 18.0513Z" fill="#151B28"/>
</g>
<defs>
<clipPath id="clip0_2113_13399">
<rect width="32" height="32" fill="white"/>
</clipPath>
</defs>
</svg>
