<svg width="32" height="32" viewBox="0 0 32 32" fill="none" xmlns="http://www.w3.org/2000/svg">
<path fill-rule="evenodd" clip-rule="evenodd" d="M30.297 6.44477C30.7934 6.94446 31.15 7.56578 31.3309 8.24656C32 10.7593 32 15.9993 32 15.9993C32 15.9993 32 21.2393 31.3309 23.752C31.15 24.4328 30.7934 25.0541 30.297 25.5538C29.8005 26.0535 29.1814 26.414 28.5018 26.5993C26 27.272 16 27.272 16 27.272C16 27.272 6 27.272 3.49818 26.5993C2.81857 26.414 2.19955 26.0535 1.70305 25.5538C1.20655 25.0541 0.850007 24.4328 0.669091 23.752C0 21.2393 0 15.9993 0 15.9993C0 15.9993 0 10.7593 0.669091 8.24656C0.850007 7.56578 1.20655 6.94446 1.70305 6.44477C2.19955 5.94508 2.81857 5.58456 3.49818 5.39929C6 4.72656 16 4.72656 16 4.72656C16 4.72656 26 4.72656 28.5018 5.39929C29.1814 5.58456 29.8005 5.94508 30.297 6.44477ZM21.0908 15.9994L12.7272 11.2412V20.7576L21.0908 15.9994Z" fill="#151B28"/>
</svg>
